<?xml version="1.0" encoding="UTF-8" standalone="no"?>
<svg
   xmlns:dc="http://purl.org/dc/elements/1.1/"
   xmlns:cc="http://creativecommons.org/ns#"
   xmlns:rdf="http://www.w3.org/1999/02/22-rdf-syntax-ns#"
   xmlns:svg="http://www.w3.org/2000/svg"
   xmlns="http://www.w3.org/2000/svg"
   height="698.60577"
   width="768"
   id="svg78"
   y="0px"
   x="0px"
   viewBox="0 0 768 698.60577"
   style="clip-rule:evenodd;fill-rule:evenodd;image-rendering:optimizeQuality;shape-rendering:geometricPrecision;text-rendering:geometricPrecision"
   version="1.1"
   xml:space="preserve"><metadata
     id="metadata82"><rdf:RDF><cc:Work
         rdf:about=""><dc:format>image/svg+xml</dc:format><dc:type
           rdf:resource="http://purl.org/dc/dcmitype/StillImage" /><dc:title></dc:title></cc:Work></rdf:RDF></metadata><defs
     id="defs68"><style
       id="style66"
       type="text/css">

    .fil0 {fill:black}

  </style></defs><g
     transform="translate(-39,-74.25)"
     id="g72"><path
       style="fill:#35495E"
       id="path70"
       d="M 804,221 599,103 c 0,-1 -1,-1 -1,-1 L 502,75 c -2,-1 -4,-1 -6,0 L 166,265 c -3,2 -3,4 -3,7 v 64 l -98,57 c -2,1 -3,3 -3,6 L 39,533 c 0,1 0,1 0,1 v 114 c 0,2 2,4 4,6 l 204,118 c 3,2 6,0 8,-1 l 66,-38 c 0,14 6,25 16,31 38,22 84,-44 74,-83 l 170,-98 c 1,12 7,23 16,28 37,22 77,-37 76,-72 3,9 8,17 15,21 38,22 84,-43 75,-82 l 12,-7 c 2,-1 4,-4 4,-6 v -65 l 25,-15 c 2,-1 3,-3 3,-6 V 227 c 0,-3 -1,-5 -3,-6 z m -54,-16 -44,-12 -156,-91 43,13 z M 499,88 690,199 611,244 420,134 Z m -3,459 V 326 l 109,-62 v 221 z m -203,187 -36,20 v -21 l 36,-21 z M 74,409 267,521 246,642 53,531 Z m 139,229 v 30 L 82,593 v -30 z m 13,8 18,10 v 30 L 226,676 Z M 69,555 v 30 l -16,-9 v -30 z m -16,36 191,111 v 15 L 53,607 Z m 227,-71 88,-50 v 107 l -107,62 z m 0,-108 -57,33 -45,-25 58,-34 z M 176,336 v -54 l 192,111 v 54 z m 205,57 102,-59 V 555 L 381,614 Z M 490,315 298,204 407,142 598,252 Z M 285,212 476,323 374,381 183,271 Z m -115,136 53,30 -62,36 c -4,2 -4,9 0,12 l 58,33 c 2,1 5,1 7,0 l 68,-39 67,38 -88,51 L 82,398 Z M 53,644 v -22 l 191,111 v 21 z m 269,73 -15,9 v -25 c 0,-3 -1,-5 -4,-6 -2,-1 -4,-1 -6,0 l -40,23 v -62 l 111,-63 v 66 c -23,8 -41,34 -46,58 z m 21,35 c -29,-17 16,-98 47,-81 30,18 -16,98 -47,81 z M 604,600 c -30,-18 16,-98 47,-81 5,4 9,11 9,20 1,27 -31,75 -56,61 z m 91,-51 c -30,-18 16,-98 46,-81 32,18 -18,97 -46,81 z m 70,-88 -7,5 c -3,-4 -6,-7 -10,-9 -32,-19 -69,27 -75,57 l -5,4 c -3,-5 -7,-8 -11,-10 -32,-19 -69,28 -75,59 L 406,669 c -6,-9 -15,-13 -25,-13 V 629 L 765,407 c 0,6 1,54 0,54 z M 794,375 618,477 V 256 l 87,-50 89,26 z"
       class="fil0" /></g></svg>
